<mxfile modified="2020-03-04T23:38:27.169Z" host="www.draw.io" agent="Mozilla/5.0 (Windows NT 10.0; Win64; x64; rv:73.0) Gecko/20100101 Firefox/73.0" etag="slABrAnugobyoz84-85j" version="12.7.9" type="github">
  <diagram id="zP4iyxs3jzjMyuQG23tj" name="Page-1">
    <mxGraphModel dx="2130" dy="521" grid="1" gridSize="10" guides="1" tooltips="1" connect="1" arrows="1" fold="1" page="1" pageScale="1" pageWidth="850" pageHeight="1100" math="0" shadow="0">
      <root>
        <mxCell id="0" />
        <mxCell id="1" parent="0" />
        <mxCell id="BRfJzfaQ3Reeo0GbPJiB-15" style="edgeStyle=orthogonalEdgeStyle;rounded=0;orthogonalLoop=1;jettySize=auto;html=1;exitX=1;exitY=0.5;exitDx=0;exitDy=0;" edge="1" parent="1" source="Ee-xBz2CqtSxg2sr-4L6-2">
          <mxGeometry relative="1" as="geometry">
            <mxPoint x="161" y="250" as="targetPoint" />
          </mxGeometry>
        </mxCell>
        <mxCell id="Ee-xBz2CqtSxg2sr-4L6-2" value="Facebook" style="rounded=1;whiteSpace=wrap;html=1;" parent="1" vertex="1">
          <mxGeometry x="22" y="214.5" width="80" height="30" as="geometry" />
        </mxCell>
        <mxCell id="BRfJzfaQ3Reeo0GbPJiB-18" style="edgeStyle=orthogonalEdgeStyle;rounded=0;orthogonalLoop=1;jettySize=auto;html=1;" edge="1" parent="1" source="Ee-xBz2CqtSxg2sr-4L6-3">
          <mxGeometry relative="1" as="geometry">
            <mxPoint x="161" y="250" as="targetPoint" />
            <Array as="points">
              <mxPoint x="161" y="273" />
              <mxPoint x="161" y="230" />
            </Array>
          </mxGeometry>
        </mxCell>
        <mxCell id="Ee-xBz2CqtSxg2sr-4L6-3" value="Chat Portal Bitel" style="rounded=1;whiteSpace=wrap;html=1;" parent="1" vertex="1">
          <mxGeometry x="22" y="257.5" width="80" height="30" as="geometry" />
        </mxCell>
        <mxCell id="Ee-xBz2CqtSxg2sr-4L6-4" value="whatssapp" style="rounded=1;whiteSpace=wrap;html=1;" parent="1" vertex="1">
          <mxGeometry x="850" y="210" width="80" height="30" as="geometry" />
        </mxCell>
        <mxCell id="Ee-xBz2CqtSxg2sr-4L6-16" style="edgeStyle=orthogonalEdgeStyle;rounded=0;orthogonalLoop=1;jettySize=auto;html=1;" parent="1" source="Ee-xBz2CqtSxg2sr-4L6-5" edge="1">
          <mxGeometry relative="1" as="geometry">
            <mxPoint x="1012" y="188" as="targetPoint" />
          </mxGeometry>
        </mxCell>
        <mxCell id="Ee-xBz2CqtSxg2sr-4L6-5" value="Mi Bitel" style="rounded=1;whiteSpace=wrap;html=1;" parent="1" vertex="1">
          <mxGeometry x="870" y="173" width="80" height="30" as="geometry" />
        </mxCell>
        <mxCell id="Ee-xBz2CqtSxg2sr-4L6-17" style="edgeStyle=orthogonalEdgeStyle;rounded=0;orthogonalLoop=1;jettySize=auto;html=1;" parent="1" edge="1">
          <mxGeometry relative="1" as="geometry">
            <mxPoint x="993" y="189" as="targetPoint" />
            <mxPoint x="941" y="258" as="sourcePoint" />
            <Array as="points">
              <mxPoint x="982" y="258" />
              <mxPoint x="982" y="189" />
            </Array>
          </mxGeometry>
        </mxCell>
        <mxCell id="Ee-xBz2CqtSxg2sr-4L6-6" value="sms" style="rounded=1;whiteSpace=wrap;html=1;" parent="1" vertex="1">
          <mxGeometry x="870" y="243" width="80" height="30" as="geometry" />
        </mxCell>
        <mxCell id="Ee-xBz2CqtSxg2sr-4L6-18" style="edgeStyle=orthogonalEdgeStyle;rounded=0;orthogonalLoop=1;jettySize=auto;html=1;entryX=0.5;entryY=1;entryDx=0;entryDy=0;" parent="1" edge="1">
          <mxGeometry relative="1" as="geometry">
            <mxPoint x="1092" y="208.5" as="targetPoint" />
            <mxPoint x="941" y="318" as="sourcePoint" />
          </mxGeometry>
        </mxCell>
        <mxCell id="Ee-xBz2CqtSxg2sr-4L6-7" value="Email Mktg" style="rounded=1;whiteSpace=wrap;html=1;" parent="1" vertex="1">
          <mxGeometry x="870" y="303" width="82" height="30" as="geometry" />
        </mxCell>
        <mxCell id="Ee-xBz2CqtSxg2sr-4L6-15" value="Order of new line&lt;br&gt;&amp;nbsp;and portability" style="text;html=1;resizable=0;points=[];autosize=1;align=left;verticalAlign=top;spacingTop=-4;" parent="1" vertex="1">
          <mxGeometry x="170" y="165" width="110" height="30" as="geometry" />
        </mxCell>
        <mxCell id="Ee-xBz2CqtSxg2sr-4L6-19" value="Traffic for &lt;br&gt;renovation" style="text;html=1;resizable=0;points=[];autosize=1;align=left;verticalAlign=top;spacingTop=-4;" parent="1" vertex="1">
          <mxGeometry x="1022" y="258" width="70" height="30" as="geometry" />
        </mxCell>
        <mxCell id="BRfJzfaQ3Reeo0GbPJiB-14" style="edgeStyle=orthogonalEdgeStyle;rounded=0;orthogonalLoop=1;jettySize=auto;html=1;exitX=1;exitY=0.25;exitDx=0;exitDy=0;" edge="1" parent="1" source="Ee-xBz2CqtSxg2sr-4L6-29">
          <mxGeometry relative="1" as="geometry">
            <mxPoint x="162" y="260" as="targetPoint" />
            <Array as="points">
              <mxPoint x="162" y="163" />
              <mxPoint x="162" y="229" />
            </Array>
          </mxGeometry>
        </mxCell>
        <mxCell id="Ee-xBz2CqtSxg2sr-4L6-29" value="Inbound Call" style="rounded=1;whiteSpace=wrap;html=1;" parent="1" vertex="1">
          <mxGeometry x="24" y="155" width="80" height="30" as="geometry" />
        </mxCell>
        <mxCell id="Ee-xBz2CqtSxg2sr-4L6-32" value="" style="shape=flexArrow;endArrow=classic;html=1;" parent="1" edge="1">
          <mxGeometry width="50" height="50" relative="1" as="geometry">
            <mxPoint x="350" y="250" as="sourcePoint" />
            <mxPoint x="450" y="250" as="targetPoint" />
            <Array as="points" />
          </mxGeometry>
        </mxCell>
        <mxCell id="Ee-xBz2CqtSxg2sr-4L6-35" style="edgeStyle=orthogonalEdgeStyle;rounded=0;orthogonalLoop=1;jettySize=auto;html=1;entryX=0;entryY=0.5;entryDx=0;entryDy=0;" parent="1" source="Ee-xBz2CqtSxg2sr-4L6-33" target="Ee-xBz2CqtSxg2sr-4L6-34" edge="1">
          <mxGeometry relative="1" as="geometry" />
        </mxCell>
        <mxCell id="Ee-xBz2CqtSxg2sr-4L6-39" style="edgeStyle=orthogonalEdgeStyle;rounded=0;orthogonalLoop=1;jettySize=auto;html=1;entryX=0.5;entryY=1;entryDx=0;entryDy=0;" parent="1" source="Ee-xBz2CqtSxg2sr-4L6-33" target="Ee-xBz2CqtSxg2sr-4L6-38" edge="1">
          <mxGeometry relative="1" as="geometry" />
        </mxCell>
        <mxCell id="Ee-xBz2CqtSxg2sr-4L6-44" style="edgeStyle=orthogonalEdgeStyle;rounded=0;orthogonalLoop=1;jettySize=auto;html=1;" parent="1" source="Ee-xBz2CqtSxg2sr-4L6-33" target="Ee-xBz2CqtSxg2sr-4L6-43" edge="1">
          <mxGeometry relative="1" as="geometry" />
        </mxCell>
        <mxCell id="Ee-xBz2CqtSxg2sr-4L6-33" value="Pre- Orders" style="rhombus;whiteSpace=wrap;html=1;" parent="1" vertex="1">
          <mxGeometry x="450" y="192" width="110" height="115" as="geometry" />
        </mxCell>
        <mxCell id="Ee-xBz2CqtSxg2sr-4L6-46" style="edgeStyle=orthogonalEdgeStyle;rounded=0;orthogonalLoop=1;jettySize=auto;html=1;entryX=0.5;entryY=1;entryDx=0;entryDy=0;" parent="1" source="Ee-xBz2CqtSxg2sr-4L6-34" target="Ee-xBz2CqtSxg2sr-4L6-45" edge="1">
          <mxGeometry relative="1" as="geometry" />
        </mxCell>
        <mxCell id="Ee-xBz2CqtSxg2sr-4L6-49" style="edgeStyle=orthogonalEdgeStyle;rounded=0;orthogonalLoop=1;jettySize=auto;html=1;" parent="1" source="Ee-xBz2CqtSxg2sr-4L6-34" target="Ee-xBz2CqtSxg2sr-4L6-48" edge="1">
          <mxGeometry relative="1" as="geometry" />
        </mxCell>
        <mxCell id="Ee-xBz2CqtSxg2sr-4L6-34" value="&lt;b&gt;Order&lt;/b&gt;" style="rhombus;whiteSpace=wrap;html=1;" parent="1" vertex="1">
          <mxGeometry x="658" y="192" width="110" height="115" as="geometry" />
        </mxCell>
        <mxCell id="Ee-xBz2CqtSxg2sr-4L6-36" value="Usuarios que&amp;nbsp; &lt;br&gt;completan&amp;nbsp;el proceso&lt;br&gt;" style="text;html=1;resizable=0;points=[];autosize=1;align=left;verticalAlign=top;spacingTop=-4;" parent="1" vertex="1">
          <mxGeometry x="550" y="264" width="130" height="30" as="geometry" />
        </mxCell>
        <mxCell id="Ee-xBz2CqtSxg2sr-4L6-37" value="Usuarios que&amp;nbsp; &lt;b&gt;NO&lt;/b&gt;&lt;br&gt;completan&amp;nbsp;el proceso&lt;br&gt;" style="text;html=1;resizable=0;points=[];autosize=1;align=left;verticalAlign=top;spacingTop=-4;" parent="1" vertex="1">
          <mxGeometry x="310" y="340" width="130" height="30" as="geometry" />
        </mxCell>
        <mxCell id="Ee-xBz2CqtSxg2sr-4L6-38" value="- Email Mktg&lt;br&gt;- whatssapp&lt;br&gt;- SMS&lt;br&gt;- outbound call&amp;nbsp;&lt;br&gt;" style="rounded=1;whiteSpace=wrap;html=1;" parent="1" vertex="1">
          <mxGeometry x="445" y="44" width="120" height="60" as="geometry" />
        </mxCell>
        <mxCell id="Ee-xBz2CqtSxg2sr-4L6-41" value="&lt;b&gt;Pre Order&lt;br&gt;Handset&lt;/b&gt;&lt;br&gt;" style="text;html=1;resizable=0;points=[];autosize=1;align=left;verticalAlign=top;spacingTop=-4;" parent="1" vertex="1">
          <mxGeometry x="514" y="135" width="70" height="30" as="geometry" />
        </mxCell>
        <mxCell id="Ee-xBz2CqtSxg2sr-4L6-42" value="&lt;b&gt;Se comparte&lt;br&gt;con partners&lt;/b&gt;&lt;br&gt;" style="text;html=1;resizable=0;points=[];autosize=1;align=left;verticalAlign=top;spacingTop=-4;" parent="1" vertex="1">
          <mxGeometry x="514" y="324.5" width="90" height="30" as="geometry" />
        </mxCell>
        <mxCell id="Ee-xBz2CqtSxg2sr-4L6-43" value="- PR&lt;br&gt;- DELCORP&lt;br&gt;" style="rounded=1;whiteSpace=wrap;html=1;" parent="1" vertex="1">
          <mxGeometry x="445" y="385" width="120" height="60" as="geometry" />
        </mxCell>
        <mxCell id="Ee-xBz2CqtSxg2sr-4L6-45" value="- Call center&lt;br&gt;- Delivery service&lt;br&gt;- whatssapp&amp;nbsp;&lt;br&gt;" style="rounded=1;whiteSpace=wrap;html=1;" parent="1" vertex="1">
          <mxGeometry x="653" y="50" width="120" height="59" as="geometry" />
        </mxCell>
        <mxCell id="Ee-xBz2CqtSxg2sr-4L6-47" value="&lt;b&gt;Order&amp;nbsp;Handset&lt;/b&gt;&lt;br&gt;" style="text;html=1;resizable=0;points=[];autosize=1;align=left;verticalAlign=top;spacingTop=-4;" parent="1" vertex="1">
          <mxGeometry x="718" y="160" width="100" height="20" as="geometry" />
        </mxCell>
        <mxCell id="Ee-xBz2CqtSxg2sr-4L6-48" value="- PR&lt;br&gt;- DELCORP&lt;br&gt;" style="rounded=1;whiteSpace=wrap;html=1;" parent="1" vertex="1">
          <mxGeometry x="653" y="385" width="120" height="60" as="geometry" />
        </mxCell>
        <mxCell id="YgWcidtkxYccLJRaPpgr-2" value="CC 123 // CC ecommerce / Facebook" style="swimlane;" parent="1" vertex="1">
          <mxGeometry x="80" y="555" width="220" height="745" as="geometry" />
        </mxCell>
        <mxCell id="YgWcidtkxYccLJRaPpgr-6" value="Yes" style="endArrow=classic;html=1;entryX=0.5;entryY=0;exitX=0.5;exitY=1;" parent="YgWcidtkxYccLJRaPpgr-2" edge="1">
          <mxGeometry width="50" height="50" relative="1" as="geometry">
            <mxPoint x="95.5714285714289" y="890.4285714285716" as="sourcePoint" />
            <mxPoint x="788" y="898" as="targetPoint" />
          </mxGeometry>
        </mxCell>
        <mxCell id="YgWcidtkxYccLJRaPpgr-96" style="edgeStyle=orthogonalEdgeStyle;rounded=0;orthogonalLoop=1;jettySize=auto;html=1;" parent="YgWcidtkxYccLJRaPpgr-2" source="YgWcidtkxYccLJRaPpgr-93" target="YgWcidtkxYccLJRaPpgr-95" edge="1">
          <mxGeometry relative="1" as="geometry" />
        </mxCell>
        <mxCell id="YgWcidtkxYccLJRaPpgr-93" value="CC 123 Received call from users &quot;Inbound&quot;" style="rounded=1;whiteSpace=wrap;html=1;" parent="YgWcidtkxYccLJRaPpgr-2" vertex="1">
          <mxGeometry x="35" y="212" width="120" height="60" as="geometry" />
        </mxCell>
        <mxCell id="YgWcidtkxYccLJRaPpgr-95" value="CC eCommerce" style="rounded=1;whiteSpace=wrap;html=1;" parent="YgWcidtkxYccLJRaPpgr-2" vertex="1">
          <mxGeometry x="35" y="115" width="120" height="32" as="geometry" />
        </mxCell>
        <mxCell id="YgWcidtkxYccLJRaPpgr-97" value="&lt;font style=&quot;font-size: 10px&quot;&gt;Transfer&amp;nbsp;call, interested&lt;br&gt;&amp;nbsp;to generate orders&amp;nbsp;&lt;/font&gt;" style="text;html=1;resizable=0;points=[];autosize=1;align=left;verticalAlign=top;spacingTop=-4;" parent="YgWcidtkxYccLJRaPpgr-2" vertex="1">
          <mxGeometry y="170" width="120" height="30" as="geometry" />
        </mxCell>
        <mxCell id="YgWcidtkxYccLJRaPpgr-102" value="Facebook Bitel Ofertas" style="rounded=1;whiteSpace=wrap;html=1;" parent="YgWcidtkxYccLJRaPpgr-2" vertex="1">
          <mxGeometry x="35" y="304" width="120" height="60" as="geometry" />
        </mxCell>
        <mxCell id="YgWcidtkxYccLJRaPpgr-105" value="Traffic 1" style="text;html=1;resizable=0;points=[];autosize=1;align=left;verticalAlign=top;spacingTop=-4;" parent="YgWcidtkxYccLJRaPpgr-2" vertex="1">
          <mxGeometry x="40" y="65" width="60" height="20" as="geometry" />
        </mxCell>
        <mxCell id="YgWcidtkxYccLJRaPpgr-106" value="Traffic 2" style="text;html=1;resizable=0;points=[];autosize=1;align=left;verticalAlign=top;spacingTop=-4;" parent="YgWcidtkxYccLJRaPpgr-2" vertex="1">
          <mxGeometry x="135" y="95" width="60" height="20" as="geometry" />
        </mxCell>
        <mxCell id="YgWcidtkxYccLJRaPpgr-107" value="Traffic 3" style="text;html=1;resizable=0;points=[];autosize=1;align=left;verticalAlign=top;spacingTop=-4;" parent="YgWcidtkxYccLJRaPpgr-2" vertex="1">
          <mxGeometry x="155" y="312" width="60" height="20" as="geometry" />
        </mxCell>
        <mxCell id="YgWcidtkxYccLJRaPpgr-149" value="" style="verticalLabelPosition=bottom;verticalAlign=top;html=1;shape=mxgraph.basic.tick;fillColor=#CC6600;" parent="YgWcidtkxYccLJRaPpgr-2" vertex="1">
          <mxGeometry x="120" y="326.7142857142858" width="40" height="40" as="geometry" />
        </mxCell>
        <mxCell id="YgWcidtkxYccLJRaPpgr-151" value="" style="verticalLabelPosition=bottom;verticalAlign=top;html=1;shape=mxgraph.basic.tick;fillColor=#CC6600;" parent="YgWcidtkxYccLJRaPpgr-2" vertex="1">
          <mxGeometry x="140" y="130.21428571428578" width="40" height="40" as="geometry" />
        </mxCell>
        <mxCell id="YgWcidtkxYccLJRaPpgr-8" value="ECommerce Website" style="swimlane;" parent="1" vertex="1">
          <mxGeometry x="300" y="555" width="340" height="745" as="geometry" />
        </mxCell>
        <mxCell id="YgWcidtkxYccLJRaPpgr-9" value="eCommerce&amp;nbsp;&lt;br&gt;Platform&lt;br&gt;" style="rounded=1;whiteSpace=wrap;html=1;" parent="YgWcidtkxYccLJRaPpgr-8" vertex="1">
          <mxGeometry x="31" y="55" width="120" height="60" as="geometry" />
        </mxCell>
        <mxCell id="YgWcidtkxYccLJRaPpgr-10" value="No" style="endArrow=classic;html=1;exitX=1;exitY=0.5;entryX=0;entryY=0.5;" parent="YgWcidtkxYccLJRaPpgr-8" source="YgWcidtkxYccLJRaPpgr-14" target="YgWcidtkxYccLJRaPpgr-22" edge="1">
          <mxGeometry width="50" height="50" relative="1" as="geometry">
            <mxPoint x="118" y="378" as="sourcePoint" />
            <mxPoint x="170" y="298" as="targetPoint" />
          </mxGeometry>
        </mxCell>
        <mxCell id="YgWcidtkxYccLJRaPpgr-11" value="Generate order" style="rounded=1;whiteSpace=wrap;html=1;" parent="YgWcidtkxYccLJRaPpgr-8" vertex="1">
          <mxGeometry x="110" y="366.5" width="120" height="60" as="geometry" />
        </mxCell>
        <mxCell id="YgWcidtkxYccLJRaPpgr-14" value="Passed all condition" style="rhombus;whiteSpace=wrap;html=1;" parent="YgWcidtkxYccLJRaPpgr-8" vertex="1">
          <mxGeometry x="20" y="166" width="103" height="92" as="geometry" />
        </mxCell>
        <mxCell id="YgWcidtkxYccLJRaPpgr-16" value="" style="endArrow=classic;html=1;exitX=1;exitY=0.5;entryX=0;entryY=0.5;exitDx=0;exitDy=0;entryDx=0;entryDy=0;" parent="YgWcidtkxYccLJRaPpgr-8" source="YgWcidtkxYccLJRaPpgr-9" target="YgWcidtkxYccLJRaPpgr-20" edge="1">
          <mxGeometry width="50" height="50" relative="1" as="geometry">
            <mxPoint x="100" y="210" as="sourcePoint" />
            <mxPoint x="86" y="160" as="targetPoint" />
          </mxGeometry>
        </mxCell>
        <mxCell id="YgWcidtkxYccLJRaPpgr-17" value="Yes" style="endArrow=classic;html=1;entryX=0;entryY=0.5;exitX=0.5;exitY=1;" parent="YgWcidtkxYccLJRaPpgr-8" source="YgWcidtkxYccLJRaPpgr-14" target="YgWcidtkxYccLJRaPpgr-11" edge="1">
          <mxGeometry width="50" height="50" relative="1" as="geometry">
            <mxPoint x="-39" y="621" as="sourcePoint" />
            <mxPoint x="76" y="671" as="targetPoint" />
            <Array as="points">
              <mxPoint x="67" y="396" />
            </Array>
          </mxGeometry>
        </mxCell>
        <mxCell id="YgWcidtkxYccLJRaPpgr-20" value="Webservices&amp;nbsp;&lt;div&gt;Check Order with Customer&amp;nbsp;&lt;/div&gt;&lt;div&gt;has debit, portability check ABDCP&lt;/div&gt;" style="html=1;whiteSpace=wrap;rounded=1;" parent="YgWcidtkxYccLJRaPpgr-8" vertex="1">
          <mxGeometry x="204" y="46" width="110" height="78" as="geometry" />
        </mxCell>
        <mxCell id="YgWcidtkxYccLJRaPpgr-21" value="" style="shape=mxgraph.bpmn.timer_start;perimeter=ellipsePerimeter;html=1;labelPosition=right;labelBackgroundColor=#ffffff;align=left;" parent="YgWcidtkxYccLJRaPpgr-20" vertex="1">
          <mxGeometry x="1" width="30" height="30" relative="1" as="geometry">
            <mxPoint x="-15" y="10" as="offset" />
          </mxGeometry>
        </mxCell>
        <mxCell id="YgWcidtkxYccLJRaPpgr-22" value="Notification about debt" style="rounded=1;whiteSpace=wrap;html=1;" parent="YgWcidtkxYccLJRaPpgr-8" vertex="1">
          <mxGeometry x="184" y="194.5" width="120" height="38" as="geometry" />
        </mxCell>
        <mxCell id="YgWcidtkxYccLJRaPpgr-23" value="End Process" style="ellipse;shape=doubleEllipse;whiteSpace=wrap;html=1;" parent="YgWcidtkxYccLJRaPpgr-8" vertex="1">
          <mxGeometry x="211.5" y="273" width="65" height="50" as="geometry" />
        </mxCell>
        <mxCell id="YgWcidtkxYccLJRaPpgr-24" value="" style="endArrow=classic;html=1;entryX=0.5;entryY=0;exitX=0.5;exitY=1;" parent="YgWcidtkxYccLJRaPpgr-8" source="YgWcidtkxYccLJRaPpgr-22" target="YgWcidtkxYccLJRaPpgr-23" edge="1">
          <mxGeometry width="50" height="50" relative="1" as="geometry">
            <mxPoint x="170" y="490" as="sourcePoint" />
            <mxPoint x="220" y="440" as="targetPoint" />
          </mxGeometry>
        </mxCell>
        <mxCell id="YgWcidtkxYccLJRaPpgr-110" value="&lt;b&gt;Traffic 1 Solo Plan&lt;br&gt;&lt;/b&gt;" style="text;html=1;resizable=0;points=[];autosize=1;align=left;verticalAlign=top;spacingTop=-4;" parent="YgWcidtkxYccLJRaPpgr-8" vertex="1">
          <mxGeometry x="238" y="353.5" width="120" height="20" as="geometry" />
        </mxCell>
        <mxCell id="YgWcidtkxYccLJRaPpgr-112" value="&lt;b&gt;Traffic 2 / 3 Solo Plan&lt;/b&gt;" style="text;html=1;resizable=0;points=[];autosize=1;align=left;verticalAlign=top;spacingTop=-4;" parent="YgWcidtkxYccLJRaPpgr-8" vertex="1">
          <mxGeometry x="209" y="502.5" width="140" height="20" as="geometry" />
        </mxCell>
        <mxCell id="YgWcidtkxYccLJRaPpgr-48" value="" style="endArrow=classic;html=1;exitX=0.5;exitY=1;entryX=0.5;entryY=0;exitDx=0;exitDy=0;" parent="YgWcidtkxYccLJRaPpgr-8" source="YgWcidtkxYccLJRaPpgr-20" target="YgWcidtkxYccLJRaPpgr-14" edge="1">
          <mxGeometry width="50" height="50" relative="1" as="geometry">
            <mxPoint x="451" y="105" as="sourcePoint" />
            <mxPoint x="72" y="250" as="targetPoint" />
            <Array as="points">
              <mxPoint x="259" y="145" />
              <mxPoint x="80" y="145" />
            </Array>
          </mxGeometry>
        </mxCell>
        <mxCell id="YgWcidtkxYccLJRaPpgr-130" value="&lt;b&gt;Traffic 1/ 2 / 3 Handset postpago&lt;/b&gt;" style="text;html=1;resizable=0;points=[];autosize=1;align=left;verticalAlign=top;spacingTop=-4;" parent="YgWcidtkxYccLJRaPpgr-8" vertex="1">
          <mxGeometry x="149" y="642" width="200" height="20" as="geometry" />
        </mxCell>
        <mxCell id="YgWcidtkxYccLJRaPpgr-150" value="" style="verticalLabelPosition=bottom;verticalAlign=top;html=1;shape=mxgraph.basic.tick;fillColor=#CC6600;" parent="YgWcidtkxYccLJRaPpgr-8" vertex="1">
          <mxGeometry x="118" y="75.21428571428578" width="40" height="40" as="geometry" />
        </mxCell>
        <mxCell id="YgWcidtkxYccLJRaPpgr-34" value="Call Center / Contact Center" style="swimlane;startSize=23;" parent="1" vertex="1">
          <mxGeometry x="640" y="555" width="240" height="745" as="geometry" />
        </mxCell>
        <mxCell id="YgWcidtkxYccLJRaPpgr-35" value="Call confirmation&lt;br&gt;Partner 1 : PS&lt;br&gt;" style="rounded=1;whiteSpace=wrap;html=1;" parent="YgWcidtkxYccLJRaPpgr-34" vertex="1">
          <mxGeometry x="48" y="354.5" width="130" height="60" as="geometry" />
        </mxCell>
        <mxCell id="YgWcidtkxYccLJRaPpgr-113" value="Share DDBB" style="strokeWidth=2;html=1;shape=mxgraph.flowchart.multi-document;whiteSpace=wrap;fillColor=#FFFF00;" parent="YgWcidtkxYccLJRaPpgr-34" vertex="1">
          <mxGeometry x="45" y="430" width="88" height="30" as="geometry" />
        </mxCell>
        <mxCell id="YgWcidtkxYccLJRaPpgr-114" value="Share DDBB" style="strokeWidth=2;html=1;shape=mxgraph.flowchart.multi-document;whiteSpace=wrap;fillColor=#FFFF00;" parent="YgWcidtkxYccLJRaPpgr-34" vertex="1">
          <mxGeometry x="60" y="572" width="88" height="30" as="geometry" />
        </mxCell>
        <mxCell id="YgWcidtkxYccLJRaPpgr-108" value="Call confirmation&lt;br&gt;Partner 2 : Delcorp&lt;br&gt;" style="rounded=1;whiteSpace=wrap;html=1;" parent="YgWcidtkxYccLJRaPpgr-34" vertex="1">
          <mxGeometry x="68" y="502" width="130" height="60" as="geometry" />
        </mxCell>
        <mxCell id="YgWcidtkxYccLJRaPpgr-127" value="Whtassapp confirmation&lt;br&gt;" style="rounded=1;whiteSpace=wrap;html=1;" parent="YgWcidtkxYccLJRaPpgr-34" vertex="1">
          <mxGeometry x="80" y="652" width="130" height="45" as="geometry" />
        </mxCell>
        <mxCell id="YgWcidtkxYccLJRaPpgr-128" value="Share DDBB" style="strokeWidth=2;html=1;shape=mxgraph.flowchart.multi-document;whiteSpace=wrap;fillColor=#FFFF00;" parent="YgWcidtkxYccLJRaPpgr-34" vertex="1">
          <mxGeometry x="48" y="707" width="88" height="30" as="geometry" />
        </mxCell>
        <mxCell id="YgWcidtkxYccLJRaPpgr-39" value="Coordination delivery Lima" style="swimlane;" parent="1" vertex="1">
          <mxGeometry x="880" y="555" width="240" height="745" as="geometry" />
        </mxCell>
        <mxCell id="YgWcidtkxYccLJRaPpgr-115" value="Whatssapp Group Store for Branch&lt;br&gt;" style="rounded=1;whiteSpace=wrap;html=1;" parent="YgWcidtkxYccLJRaPpgr-39" vertex="1">
          <mxGeometry x="60" y="115" width="130" height="60" as="geometry" />
        </mxCell>
        <mxCell id="YgWcidtkxYccLJRaPpgr-116" value="Whatssapp Group D2D&lt;br&gt;" style="rounded=1;whiteSpace=wrap;html=1;" parent="YgWcidtkxYccLJRaPpgr-39" vertex="1">
          <mxGeometry x="73.5" y="380" width="130" height="60" as="geometry" />
        </mxCell>
        <mxCell id="YgWcidtkxYccLJRaPpgr-117" value="Whatssapp Group Delcorp&lt;br&gt;" style="rounded=1;whiteSpace=wrap;html=1;" parent="YgWcidtkxYccLJRaPpgr-39" vertex="1">
          <mxGeometry x="92" y="502" width="130" height="60" as="geometry" />
        </mxCell>
        <mxCell id="YgWcidtkxYccLJRaPpgr-118" value="Share DDBB" style="strokeWidth=2;html=1;shape=mxgraph.flowchart.multi-document;whiteSpace=wrap;fillColor=#FFFF00;" parent="YgWcidtkxYccLJRaPpgr-39" vertex="1">
          <mxGeometry x="16" y="182" width="88" height="30" as="geometry" />
        </mxCell>
        <mxCell id="YgWcidtkxYccLJRaPpgr-119" value="Share DDBB" style="strokeWidth=2;html=1;shape=mxgraph.flowchart.multi-document;whiteSpace=wrap;fillColor=#FFFF00;" parent="YgWcidtkxYccLJRaPpgr-39" vertex="1">
          <mxGeometry x="60" y="449" width="88" height="30" as="geometry" />
        </mxCell>
        <mxCell id="YgWcidtkxYccLJRaPpgr-120" value="Share DDBB" style="strokeWidth=2;html=1;shape=mxgraph.flowchart.multi-document;whiteSpace=wrap;fillColor=#FFFF00;" parent="YgWcidtkxYccLJRaPpgr-39" vertex="1">
          <mxGeometry x="38" y="578" width="88" height="30" as="geometry" />
        </mxCell>
        <mxCell id="YgWcidtkxYccLJRaPpgr-40" value="Coordination Delivery provincia" style="swimlane;startSize=23;" parent="1" vertex="1">
          <mxGeometry x="1120" y="555" width="240" height="745" as="geometry" />
        </mxCell>
        <mxCell id="YgWcidtkxYccLJRaPpgr-143" value="Whatssapp Group Store for Branch province&lt;br&gt;" style="rounded=1;whiteSpace=wrap;html=1;" parent="YgWcidtkxYccLJRaPpgr-40" vertex="1">
          <mxGeometry x="74.5" y="116.5" width="130" height="60" as="geometry" />
        </mxCell>
        <mxCell id="YgWcidtkxYccLJRaPpgr-144" value="Whatssapp Group D2D province&lt;br&gt;" style="rounded=1;whiteSpace=wrap;html=1;" parent="YgWcidtkxYccLJRaPpgr-40" vertex="1">
          <mxGeometry x="79.5" y="229.5" width="130" height="60" as="geometry" />
        </mxCell>
        <mxCell id="YgWcidtkxYccLJRaPpgr-145" value="Share DDBB" style="strokeWidth=2;html=1;shape=mxgraph.flowchart.multi-document;whiteSpace=wrap;fillColor=#FFFF00;" parent="YgWcidtkxYccLJRaPpgr-40" vertex="1">
          <mxGeometry x="30.5" y="183.5" width="88" height="30" as="geometry" />
        </mxCell>
        <mxCell id="YgWcidtkxYccLJRaPpgr-146" value="Share DDBB" style="strokeWidth=2;html=1;shape=mxgraph.flowchart.multi-document;whiteSpace=wrap;fillColor=#FFFF00;" parent="YgWcidtkxYccLJRaPpgr-40" vertex="1">
          <mxGeometry x="30.5" y="298" width="88" height="30" as="geometry" />
        </mxCell>
        <mxCell id="YgWcidtkxYccLJRaPpgr-49" value="Activations BCCS/mBCCS" style="swimlane;" parent="1" vertex="1">
          <mxGeometry x="1360" y="556" width="240" height="744" as="geometry" />
        </mxCell>
        <mxCell id="YgWcidtkxYccLJRaPpgr-142" value="Delivery Delcorp&lt;br&gt;" style="rounded=1;whiteSpace=wrap;html=1;" parent="YgWcidtkxYccLJRaPpgr-49" vertex="1">
          <mxGeometry x="74" y="501.5" width="130" height="60" as="geometry" />
        </mxCell>
        <mxCell id="YgWcidtkxYccLJRaPpgr-147" value="Delivery D2D&lt;br&gt;" style="rounded=1;whiteSpace=wrap;html=1;" parent="YgWcidtkxYccLJRaPpgr-49" vertex="1">
          <mxGeometry x="73" y="379.5" width="130" height="60" as="geometry" />
        </mxCell>
        <mxCell id="YgWcidtkxYccLJRaPpgr-148" value="Activation on Store&lt;br&gt;" style="rounded=1;whiteSpace=wrap;html=1;" parent="YgWcidtkxYccLJRaPpgr-49" vertex="1">
          <mxGeometry x="55" y="36.5" width="130" height="60" as="geometry" />
        </mxCell>
        <mxCell id="YgWcidtkxYccLJRaPpgr-50" value="" style="endArrow=classic;html=1;exitX=1;exitY=0.25;entryX=0;entryY=0.5;exitDx=0;exitDy=0;" parent="1" source="YgWcidtkxYccLJRaPpgr-11" target="YgWcidtkxYccLJRaPpgr-35" edge="1">
          <mxGeometry width="50" height="50" relative="1" as="geometry">
            <mxPoint x="557" y="1345" as="sourcePoint" />
            <mxPoint x="867" y="1325" as="targetPoint" />
            <Array as="points">
              <mxPoint x="620" y="937" />
              <mxPoint x="660" y="940" />
            </Array>
          </mxGeometry>
        </mxCell>
        <mxCell id="YgWcidtkxYccLJRaPpgr-87" value="Customer" style="swimlane;" parent="1" vertex="1">
          <mxGeometry x="-140" y="555" width="244" height="745" as="geometry" />
        </mxCell>
        <mxCell id="YgWcidtkxYccLJRaPpgr-88" value="&lt;b&gt;Flow of users interested on generate order&lt;/b&gt;" style="ellipse;whiteSpace=wrap;html=1;" parent="YgWcidtkxYccLJRaPpgr-87" vertex="1">
          <mxGeometry x="30" y="37" width="130" height="96" as="geometry" />
        </mxCell>
        <mxCell id="YgWcidtkxYccLJRaPpgr-91" value="Yes" style="endArrow=classic;html=1;entryX=0.5;entryY=0;exitX=0.5;exitY=1;" parent="YgWcidtkxYccLJRaPpgr-87" edge="1">
          <mxGeometry width="50" height="50" relative="1" as="geometry">
            <mxPoint x="95.5714285714289" y="890.4285714285716" as="sourcePoint" />
            <mxPoint x="788" y="898" as="targetPoint" />
          </mxGeometry>
        </mxCell>
        <mxCell id="YgWcidtkxYccLJRaPpgr-168" value="Share DDBB" style="strokeWidth=2;html=1;shape=mxgraph.flowchart.multi-document;whiteSpace=wrap;fillColor=#FFFF00;" parent="YgWcidtkxYccLJRaPpgr-87" vertex="1">
          <mxGeometry x="22" y="610" width="88" height="32" as="geometry" />
        </mxCell>
        <mxCell id="YgWcidtkxYccLJRaPpgr-171" value="" style="verticalLabelPosition=bottom;verticalAlign=top;html=1;shape=mxgraph.basic.tick;fillColor=#CC6600;" parent="YgWcidtkxYccLJRaPpgr-87" vertex="1">
          <mxGeometry x="50" y="554.5" width="40" height="35" as="geometry" />
        </mxCell>
        <mxCell id="YgWcidtkxYccLJRaPpgr-174" value="Aprobacion de&amp;nbsp;&lt;br&gt;tratamiento de Datps&lt;br&gt;Personales&lt;br&gt;" style="text;html=1;resizable=0;points=[];autosize=1;align=left;verticalAlign=top;spacingTop=-4;" parent="YgWcidtkxYccLJRaPpgr-87" vertex="1">
          <mxGeometry x="122" y="554.5" width="130" height="40" as="geometry" />
        </mxCell>
        <mxCell id="YgWcidtkxYccLJRaPpgr-167" value="&lt;b&gt;&lt;font style=&quot;font-size: 14px&quot;&gt;Summary&lt;/font&gt;&lt;/b&gt;" style="text;html=1;resizable=0;points=[];autosize=1;align=left;verticalAlign=top;spacingTop=-4;" parent="YgWcidtkxYccLJRaPpgr-87" vertex="1">
          <mxGeometry x="22" y="503.5" width="80" height="20" as="geometry" />
        </mxCell>
        <mxCell id="YgWcidtkxYccLJRaPpgr-94" style="edgeStyle=orthogonalEdgeStyle;rounded=0;orthogonalLoop=1;jettySize=auto;html=1;" parent="1" target="YgWcidtkxYccLJRaPpgr-93" edge="1">
          <mxGeometry relative="1" as="geometry">
            <mxPoint x="-1" y="680" as="sourcePoint" />
            <Array as="points">
              <mxPoint x="-1" y="797" />
            </Array>
          </mxGeometry>
        </mxCell>
        <mxCell id="YgWcidtkxYccLJRaPpgr-100" style="edgeStyle=orthogonalEdgeStyle;rounded=0;orthogonalLoop=1;jettySize=auto;html=1;entryX=0;entryY=0.5;entryDx=0;entryDy=0;" parent="1" source="YgWcidtkxYccLJRaPpgr-88" target="YgWcidtkxYccLJRaPpgr-9" edge="1">
          <mxGeometry relative="1" as="geometry" />
        </mxCell>
        <mxCell id="YgWcidtkxYccLJRaPpgr-101" style="edgeStyle=orthogonalEdgeStyle;rounded=0;orthogonalLoop=1;jettySize=auto;html=1;" parent="1" source="YgWcidtkxYccLJRaPpgr-95" target="YgWcidtkxYccLJRaPpgr-9" edge="1">
          <mxGeometry relative="1" as="geometry">
            <Array as="points">
              <mxPoint x="270" y="686" />
              <mxPoint x="270" y="650" />
            </Array>
          </mxGeometry>
        </mxCell>
        <mxCell id="YgWcidtkxYccLJRaPpgr-103" style="edgeStyle=orthogonalEdgeStyle;rounded=0;orthogonalLoop=1;jettySize=auto;html=1;entryX=0;entryY=0.5;entryDx=0;entryDy=0;" parent="1" source="YgWcidtkxYccLJRaPpgr-88" target="YgWcidtkxYccLJRaPpgr-102" edge="1">
          <mxGeometry relative="1" as="geometry">
            <Array as="points">
              <mxPoint x="-45" y="889" />
            </Array>
          </mxGeometry>
        </mxCell>
        <mxCell id="YgWcidtkxYccLJRaPpgr-104" style="edgeStyle=orthogonalEdgeStyle;rounded=0;orthogonalLoop=1;jettySize=auto;html=1;entryX=0;entryY=0.75;entryDx=0;entryDy=0;" parent="1" source="YgWcidtkxYccLJRaPpgr-102" target="YgWcidtkxYccLJRaPpgr-9" edge="1">
          <mxGeometry relative="1" as="geometry">
            <Array as="points">
              <mxPoint x="283" y="889" />
              <mxPoint x="283" y="660" />
              <mxPoint x="331" y="660" />
            </Array>
          </mxGeometry>
        </mxCell>
        <mxCell id="YgWcidtkxYccLJRaPpgr-111" value="" style="endArrow=classic;html=1;entryX=0;entryY=0.5;entryDx=0;entryDy=0;" parent="1" target="YgWcidtkxYccLJRaPpgr-108" edge="1">
          <mxGeometry width="50" height="50" relative="1" as="geometry">
            <mxPoint x="500" y="980" as="sourcePoint" />
            <mxPoint x="890" y="932" as="targetPoint" />
            <Array as="points">
              <mxPoint x="500" y="1087" />
              <mxPoint x="680" y="1087" />
            </Array>
          </mxGeometry>
        </mxCell>
        <mxCell id="YgWcidtkxYccLJRaPpgr-129" style="edgeStyle=orthogonalEdgeStyle;rounded=0;orthogonalLoop=1;jettySize=auto;html=1;entryX=0;entryY=0.5;entryDx=0;entryDy=0;" parent="1" target="YgWcidtkxYccLJRaPpgr-127" edge="1">
          <mxGeometry relative="1" as="geometry">
            <mxPoint x="441" y="980" as="sourcePoint" />
            <Array as="points">
              <mxPoint x="441" y="1227" />
            </Array>
          </mxGeometry>
        </mxCell>
        <mxCell id="YgWcidtkxYccLJRaPpgr-153" style="edgeStyle=orthogonalEdgeStyle;rounded=0;orthogonalLoop=1;jettySize=auto;html=1;entryX=0;entryY=0.5;entryDx=0;entryDy=0;" parent="1" source="YgWcidtkxYccLJRaPpgr-143" target="YgWcidtkxYccLJRaPpgr-148" edge="1">
          <mxGeometry relative="1" as="geometry" />
        </mxCell>
        <mxCell id="YgWcidtkxYccLJRaPpgr-155" style="edgeStyle=orthogonalEdgeStyle;rounded=0;orthogonalLoop=1;jettySize=auto;html=1;exitX=0.5;exitY=0;exitDx=0;exitDy=0;" parent="1" source="YgWcidtkxYccLJRaPpgr-115" edge="1">
          <mxGeometry relative="1" as="geometry">
            <mxPoint x="1420" y="600" as="targetPoint" />
            <Array as="points">
              <mxPoint x="1006" y="600" />
            </Array>
          </mxGeometry>
        </mxCell>
        <mxCell id="YgWcidtkxYccLJRaPpgr-156" style="edgeStyle=orthogonalEdgeStyle;rounded=0;orthogonalLoop=1;jettySize=auto;html=1;" parent="1" source="YgWcidtkxYccLJRaPpgr-116" target="YgWcidtkxYccLJRaPpgr-147" edge="1">
          <mxGeometry relative="1" as="geometry" />
        </mxCell>
        <mxCell id="YgWcidtkxYccLJRaPpgr-157" style="edgeStyle=orthogonalEdgeStyle;rounded=0;orthogonalLoop=1;jettySize=auto;html=1;" parent="1" source="YgWcidtkxYccLJRaPpgr-144" target="YgWcidtkxYccLJRaPpgr-147" edge="1">
          <mxGeometry relative="1" as="geometry" />
        </mxCell>
        <mxCell id="YgWcidtkxYccLJRaPpgr-158" style="edgeStyle=orthogonalEdgeStyle;rounded=0;orthogonalLoop=1;jettySize=auto;html=1;entryX=0;entryY=0.5;entryDx=0;entryDy=0;" parent="1" source="YgWcidtkxYccLJRaPpgr-117" target="YgWcidtkxYccLJRaPpgr-142" edge="1">
          <mxGeometry relative="1" as="geometry" />
        </mxCell>
        <mxCell id="YgWcidtkxYccLJRaPpgr-159" style="edgeStyle=orthogonalEdgeStyle;rounded=0;orthogonalLoop=1;jettySize=auto;html=1;entryX=0;entryY=0.5;entryDx=0;entryDy=0;" parent="1" source="YgWcidtkxYccLJRaPpgr-35" target="YgWcidtkxYccLJRaPpgr-116" edge="1">
          <mxGeometry relative="1" as="geometry" />
        </mxCell>
        <mxCell id="YgWcidtkxYccLJRaPpgr-160" style="edgeStyle=orthogonalEdgeStyle;rounded=0;orthogonalLoop=1;jettySize=auto;html=1;entryX=0;entryY=0.5;entryDx=0;entryDy=0;" parent="1" source="YgWcidtkxYccLJRaPpgr-35" target="YgWcidtkxYccLJRaPpgr-115" edge="1">
          <mxGeometry relative="1" as="geometry">
            <Array as="points">
              <mxPoint x="850" y="940" />
              <mxPoint x="850" y="700" />
            </Array>
          </mxGeometry>
        </mxCell>
        <mxCell id="YgWcidtkxYccLJRaPpgr-161" style="edgeStyle=orthogonalEdgeStyle;rounded=0;orthogonalLoop=1;jettySize=auto;html=1;entryX=0;entryY=0.5;entryDx=0;entryDy=0;" parent="1" source="YgWcidtkxYccLJRaPpgr-108" target="YgWcidtkxYccLJRaPpgr-117" edge="1">
          <mxGeometry relative="1" as="geometry" />
        </mxCell>
        <mxCell id="YgWcidtkxYccLJRaPpgr-162" style="edgeStyle=orthogonalEdgeStyle;rounded=0;orthogonalLoop=1;jettySize=auto;html=1;entryX=0.5;entryY=1;entryDx=0;entryDy=0;" parent="1" source="YgWcidtkxYccLJRaPpgr-127" target="YgWcidtkxYccLJRaPpgr-117" edge="1">
          <mxGeometry relative="1" as="geometry" />
        </mxCell>
        <mxCell id="YgWcidtkxYccLJRaPpgr-163" style="edgeStyle=orthogonalEdgeStyle;rounded=0;orthogonalLoop=1;jettySize=auto;html=1;" parent="1" source="YgWcidtkxYccLJRaPpgr-127" edge="1">
          <mxGeometry relative="1" as="geometry">
            <mxPoint x="950" y="980" as="targetPoint" />
            <Array as="points">
              <mxPoint x="910" y="1230" />
              <mxPoint x="910" y="980" />
              <mxPoint x="950" y="980" />
            </Array>
          </mxGeometry>
        </mxCell>
        <mxCell id="YgWcidtkxYccLJRaPpgr-166" value="&lt;b&gt;&lt;font style=&quot;font-size: 24px&quot;&gt;Tratamiento de Datos en Canal Digital&lt;/font&gt;&lt;/b&gt;" style="text;html=1;resizable=0;points=[];autosize=1;align=left;verticalAlign=top;spacingTop=-4;" parent="1" vertex="1">
          <mxGeometry x="488" y="518" width="450" height="20" as="geometry" />
        </mxCell>
        <mxCell id="YgWcidtkxYccLJRaPpgr-170" value="Share DDBB by&amp;nbsp;&lt;br&gt;excel or text&lt;br&gt;" style="text;html=1;resizable=0;points=[];autosize=1;align=left;verticalAlign=top;spacingTop=-4;" parent="1" vertex="1">
          <mxGeometry x="-12" y="1175" width="100" height="30" as="geometry" />
        </mxCell>
        <mxCell id="BRfJzfaQ3Reeo0GbPJiB-1" value="&lt;div&gt;eCommerce &lt;br&gt;&lt;/div&gt;&lt;div&gt;DDBB&lt;/div&gt;" style="shape=cylinder;whiteSpace=wrap;html=1;boundedLbl=1;backgroundOutline=1;" vertex="1" parent="1">
          <mxGeometry x="220" y="199.5" width="120" height="100" as="geometry" />
        </mxCell>
        <mxCell id="BRfJzfaQ3Reeo0GbPJiB-13" style="edgeStyle=orthogonalEdgeStyle;rounded=0;orthogonalLoop=1;jettySize=auto;html=1;" edge="1" parent="1" source="BRfJzfaQ3Reeo0GbPJiB-5">
          <mxGeometry relative="1" as="geometry">
            <mxPoint x="160" y="250" as="targetPoint" />
            <Array as="points">
              <mxPoint x="160" y="313" />
            </Array>
          </mxGeometry>
        </mxCell>
        <mxCell id="BRfJzfaQ3Reeo0GbPJiB-5" value="Google Adwords" style="rounded=1;whiteSpace=wrap;html=1;" vertex="1" parent="1">
          <mxGeometry x="20" y="297.5" width="80" height="30" as="geometry" />
        </mxCell>
        <mxCell id="BRfJzfaQ3Reeo0GbPJiB-12" style="edgeStyle=orthogonalEdgeStyle;rounded=0;orthogonalLoop=1;jettySize=auto;html=1;exitX=1;exitY=0.5;exitDx=0;exitDy=0;" edge="1" parent="1" source="BRfJzfaQ3Reeo0GbPJiB-9">
          <mxGeometry relative="1" as="geometry">
            <mxPoint x="160" y="260" as="targetPoint" />
            <Array as="points">
              <mxPoint x="160" y="353" />
              <mxPoint x="160" y="269" />
            </Array>
          </mxGeometry>
        </mxCell>
        <mxCell id="BRfJzfaQ3Reeo0GbPJiB-9" value="SEO" style="rounded=1;whiteSpace=wrap;html=1;" vertex="1" parent="1">
          <mxGeometry x="20" y="337.5" width="80" height="30" as="geometry" />
        </mxCell>
        <mxCell id="BRfJzfaQ3Reeo0GbPJiB-19" value="" style="html=1;shadow=0;dashed=0;align=center;verticalAlign=middle;shape=mxgraph.arrows2.arrow;dy=0.6;dx=40;direction=north;notch=0;rotation=89;" vertex="1" parent="1">
          <mxGeometry x="170" y="221" width="40" height="57" as="geometry" />
        </mxCell>
        <mxCell id="BRfJzfaQ3Reeo0GbPJiB-20" value="100%" style="text;html=1;align=center;verticalAlign=middle;resizable=0;points=[];autosize=1;" vertex="1" parent="1">
          <mxGeometry x="365" y="219.5" width="50" height="20" as="geometry" />
        </mxCell>
      </root>
    </mxGraphModel>
  </diagram>
</mxfile>
